name C:/MyDriveSym/Projects/mobilecap/Data\Session20210813_0001\mocap\ForceDataProcessed\DJ3_forces.mot
datacolumns 28
datarows 6
range 1.92700000 1.92950000
endheader 
time	R_ground_force_vx	R_ground_force_vy	R_ground_force_vz	R_ground_force_px	R_ground_force_py	R_ground_force_pz	R_ground_torque_x	R_ground_torque_y	R_ground_torque_z	L_ground_force_vx	L_ground_force_vy	L_ground_force_vz	L_ground_force_px	L_ground_force_py	L_ground_force_pz	L_ground_torque_x	L_ground_torque_y	L_ground_torque_z	3_ground_force_vx	3_ground_force_vy	3_ground_force_vz	3_ground_force_px	3_ground_force_py	3_ground_force_pz	3_ground_torque_x	3_ground_torque_y	3_ground_torque_z	
          1.92700000	         -5.11459000	        178.60181700	         -8.60434700	         -0.12717200	          0.00600000	         -0.24501200	          0.00000000	          0.33225400	          0.00000000	         -2.36506100	        251.30678400	         25.51927300	         -0.12650900	          0.00600000	         -0.86054200	          0.00000000	          1.56731300	          0.00000000	          0.00000000	          0.00000000	          0.00000000	          0.00000000	          0.00000000	          0.00000000	          0.00000000	          0.00000000	          0.00000000	
          1.92750000	         -3.64629300	        169.53245500	         -7.05136200	         -0.12653500	          0.00600000	         -0.24463900	          0.00000000	          0.31105200	          0.00000000	         -0.73091500	        243.86332300	         24.02384600	         -0.12595800	          0.00600000	         -0.86059600	          0.00000000	          1.57809000	          0.00000000	          0.00000000	          0.00000000	          0.00000000	          0.00000000	          0.00000000	          0.00000000	          0.00000000	          0.00000000	          0.00000000	
          1.92800000	         -2.23301600	        160.62909300	         -5.56537500	         -0.12587500	          0.00600000	         -0.24426200	          0.00000000	          0.29097600	          0.00000000	          0.89478900	        236.44362400	         22.54555400	         -0.12540400	          0.00600000	         -0.86064400	          0.00000000	          1.58691500	          0.00000000	          0.00000000	          0.00000000	          0.00000000	          0.00000000	          0.00000000	          0.00000000	          0.00000000	          0.00000000	          0.00000000	
          1.92850000	         -0.87804600	        151.90265000	         -4.14938900	         -0.12519100	          0.00600000	         -0.24388000	          0.00000000	          0.27209400	          0.00000000	          2.51000600	        229.05049100	         21.08557800	         -0.12484700	          0.00600000	         -0.86068500	          0.00000000	          1.59372500	          0.00000000	          0.00000000	          0.00000000	          0.00000000	          0.00000000	          0.00000000	          0.00000000	          0.00000000	          0.00000000	          0.00000000	
          1.92900000	          0.41535400	        143.36365300	         -2.80614100	         -0.12448100	          0.00600000	         -0.24349200	          0.00000000	          0.25445500	          0.00000000	          4.11240800	        221.68661400	         19.64506200	         -0.12428600	          0.00600000	         -0.86071700	          0.00000000	          1.59847700	          0.00000000	          0.00000000	          0.00000000	          0.00000000	          0.00000000	          0.00000000	          0.00000000	          0.00000000	          0.00000000	          0.00000000	
          1.92950000	          1.64397500	        135.02223700	         -1.53807900	         -0.12374300	          0.00600000	         -0.24309800	          0.00000000	          0.23809000	          0.00000000	          5.69936400	        214.35464400	         18.22514700	         -0.12372100	          0.00600000	         -0.86074300	          0.00000000	          1.60114400	          0.00000000	          0.00000000	          0.00000000	          0.00000000	          0.00000000	          0.00000000	          0.00000000	          0.00000000	          0.00000000	          0.00000000	
